<svg width="1077" height="293" viewBox="0 0 1077 293" fill="none" xmlns="http://www.w3.org/2000/svg">
<rect x="0.25" y="0.25" width="519.5" height="292" fill="white" stroke="black" stroke-width="0.5"/>
<path d="M557.25 0.25H1076.75V292.25H557.25V0.25Z" fill="white" stroke="black" stroke-width="0.5"/>
<path d="M785.828 154.044C785.828 160.906 784.251 166.426 781.097 170.604C777.942 174.755 773.709 176.83 768.396 176.83C762.724 176.83 758.339 174.824 755.24 170.812L754.866 176H747.811V112.25H755.489V136.032C758.588 132.186 762.863 130.263 768.313 130.263C773.764 130.263 778.039 132.324 781.138 136.447C784.265 140.569 785.828 146.214 785.828 153.38V154.044ZM778.15 153.173C778.15 147.943 777.14 143.904 775.12 141.054C773.1 138.204 770.195 136.779 766.404 136.779C761.341 136.779 757.702 139.131 755.489 143.834V163.258C757.841 167.962 761.507 170.314 766.487 170.314C770.167 170.314 773.031 168.889 775.079 166.039C777.126 163.189 778.15 158.9 778.15 153.173ZM802.607 176H794.929V131.093H802.607V176ZM794.307 119.181C794.307 117.936 794.68 116.885 795.427 116.027C796.202 115.169 797.336 114.74 798.83 114.74C800.325 114.74 801.459 115.169 802.234 116.027C803.009 116.885 803.396 117.936 803.396 119.181C803.396 120.426 803.009 121.464 802.234 122.294C801.459 123.124 800.325 123.539 798.83 123.539C797.336 123.539 796.202 123.124 795.427 122.294C794.68 121.464 794.307 120.426 794.307 119.181ZM835.366 137.982C834.203 137.789 832.944 137.692 831.589 137.692C826.553 137.692 823.136 139.836 821.337 144.125V176H813.659V131.093H821.13L821.254 136.281C823.772 132.269 827.341 130.263 831.962 130.263C833.456 130.263 834.591 130.456 835.366 130.844V137.982ZM838.49 153.173C838.49 146.283 840.122 140.749 843.387 136.571C846.652 132.366 850.927 130.263 856.212 130.263C861.469 130.263 865.633 132.061 868.705 135.658V112.25H876.383V176H869.327L868.954 171.186C865.883 174.949 861.608 176.83 856.129 176.83C850.927 176.83 846.68 174.7 843.387 170.438C840.122 166.177 838.49 160.616 838.49 153.754V153.173ZM846.168 154.044C846.168 159.136 847.22 163.12 849.322 165.998C851.425 168.875 854.331 170.314 858.038 170.314C862.908 170.314 866.464 168.128 868.705 163.756V143.129C866.408 138.896 862.88 136.779 858.121 136.779C854.358 136.779 851.425 138.231 849.322 141.137C847.22 144.042 846.168 148.345 846.168 154.044Z" fill="black"/>
<rect x="130" y="16" width="260" height="260" fill="white"/>
<rect x="130" y="16" width="260" height="260" fill="white"/>
<rect x="130" y="16" width="260" height="260" stroke="black" stroke-width="0.5"/>
<path d="M223.523 203.249C223.523 203.249 228.851 217.576 225.778 222.624C222.685 227.673 210.334 226.695 206.543 229.089C203.829 230.805 203.869 235.554 205.565 237.51C207.241 239.485 231.685 237.789 236.474 228.531C241.263 219.272 234.758 201.553 234.758 201.553L223.523 203.249Z" fill="#F44336"/>
<path d="M262.554 201.553L252.158 203.807C252.158 203.807 256.647 222.624 252.996 228.81C249.344 234.996 236.254 241.6 233.9 246.788C231.784 251.418 236.992 255.209 245.134 250.161C253.275 245.112 262.494 237.57 264.23 233.858C268.46 224.879 262.554 201.553 262.554 201.553Z" fill="#F44336"/>
<path d="M191.497 59.6994C169.388 64.6679 152.168 83.305 158.633 111.66C162.464 128.481 164.819 134.407 166.215 141.99C169.169 157.933 168.37 164.937 175.115 179.543C182.278 195.088 208.638 215.042 241.502 210.253C274.366 205.464 287.576 200.974 287.576 200.974L299.369 190.578L310.603 187.764L312.279 179.623C312.279 179.623 320.68 179.244 322.396 176.53C325.109 172.22 323.513 168.668 318.744 166.972C313.975 165.296 311.162 163.879 311.162 163.879C311.162 163.879 357.515 133.25 363.122 129.898C368.729 126.545 377.449 120.759 377.868 118.664C378.926 113.336 364.519 101.523 345.702 95.9159C326.885 90.2889 310.723 88.7524 308.069 90.8676C304.537 93.6412 288.973 122.894 278.577 121.497C265.088 119.661 255.829 107.03 253.295 99.8668C250.421 91.7456 233.161 50.3409 191.497 59.6994Z" fill="#4791DB"/>
<path d="M163.123 103.518C159.75 102.96 151.13 112.139 149.454 114.373C147.778 116.608 145.124 119.821 146.082 122.235C147.578 125.987 155.261 126.186 159.75 126.545C164.44 126.925 173.419 127.663 174.915 124.869C176.412 122.056 173.239 114.952 170.605 110.642C168.171 106.631 166.634 104.117 163.123 103.518V103.518Z" fill="#FFB74D"/>
<path d="M199.859 111.657C204.258 111.126 207.357 106.829 206.781 102.059C206.205 97.2886 202.173 93.8518 197.775 94.3825C193.377 94.9132 190.278 99.2104 190.853 103.981C191.429 108.751 195.461 112.188 199.859 111.657Z" fill="#2A2D2F"/>
<path d="M225.2 163.081C221.309 164.498 226.417 178.246 231.665 184.432C237.192 190.937 250.561 205.543 270.994 207.459C284.862 208.776 291.028 204.845 294.301 201.273C296.735 198.619 299.349 195.547 301.145 194.15C303.759 192.094 306.393 193.87 310.882 190.598C314.115 188.243 314.813 184.332 316.509 182.916C318.185 181.519 321.039 181.838 322.496 180.481C325.11 178.047 324.75 170.923 322.875 170.564C320.999 170.205 320.819 175.612 318.944 176.371C317.068 177.129 314.574 176.65 311.082 178.625C308.089 180.302 309.027 183.674 306.971 185.17C304.916 186.667 301.165 184.612 296.116 187.425C293.383 188.942 291.068 196.225 283.186 197.921C273.409 200.016 258.742 192.893 251.719 187.804C235.416 175.992 231.844 160.647 225.2 163.081Z" fill="#1976D2"/>
</svg>
