<svg width="520" height="293" viewBox="0 0 520 293" fill="none" xmlns="http://www.w3.org/2000/svg">
<rect x="0.25" y="0.25" width="519.5" height="292" fill="white" stroke="black" stroke-width="0.5"/>
<path d="M242.359 248.793C242.359 253.234 241.339 256.805 239.298 259.509C237.257 262.194 234.518 263.537 231.08 263.537C227.41 263.537 224.572 262.239 222.567 259.643L222.325 263H217.76V221.75H222.728V237.138C224.733 234.65 227.499 233.405 231.026 233.405C234.553 233.405 237.319 234.739 239.325 237.407C241.348 240.074 242.359 243.727 242.359 248.364V248.793ZM237.391 248.229C237.391 244.846 236.738 242.232 235.431 240.388C234.124 238.544 232.244 237.622 229.791 237.622C226.515 237.622 224.16 239.143 222.728 242.187V254.755C224.25 257.799 226.622 259.321 229.845 259.321C232.226 259.321 234.079 258.399 235.404 256.555C236.729 254.711 237.391 251.936 237.391 248.229ZM253.217 263H248.248V233.942H253.217V263ZM247.845 226.235C247.845 225.429 248.087 224.749 248.571 224.194C249.072 223.639 249.806 223.361 250.773 223.361C251.739 223.361 252.474 223.639 252.975 224.194C253.476 224.749 253.727 225.429 253.727 226.235C253.727 227.041 253.476 227.712 252.975 228.249C252.474 228.786 251.739 229.055 250.773 229.055C249.806 229.055 249.072 228.786 248.571 228.249C248.087 227.712 247.845 227.041 247.845 226.235ZM274.413 238.4C273.661 238.275 272.846 238.212 271.969 238.212C268.711 238.212 266.5 239.6 265.336 242.375V263H260.368V233.942H265.202L265.282 237.299C266.911 234.703 269.221 233.405 272.211 233.405C273.178 233.405 273.912 233.531 274.413 233.781V238.4ZM276.435 248.229C276.435 243.771 277.491 240.191 279.604 237.487C281.716 234.766 284.482 233.405 287.902 233.405C291.304 233.405 293.998 234.569 295.985 236.896V221.75H300.954V263H296.388L296.147 259.885C294.159 262.32 291.393 263.537 287.848 263.537C284.482 263.537 281.734 262.159 279.604 259.401C277.491 256.644 276.435 253.046 276.435 248.605V248.229ZM281.403 248.793C281.403 252.088 282.083 254.666 283.444 256.528C284.805 258.39 286.685 259.321 289.084 259.321C292.235 259.321 294.535 257.906 295.985 255.078V241.73C294.499 238.991 292.217 237.622 289.137 237.622C286.702 237.622 284.805 238.562 283.444 240.441C282.083 242.321 281.403 245.105 281.403 248.793Z" fill="black"/>
<rect x="160" y="10" width="198" height="198" fill="white"/>
<rect x="160" y="10" width="198" height="198" fill="white"/>
<rect x="160" y="10" width="198" height="198" stroke="black" stroke-width="0.5"/>
<path d="M231.222 152.597C231.222 152.597 235.279 163.508 232.939 167.352C230.583 171.197 221.177 170.452 218.29 172.276C216.223 173.582 216.254 177.199 217.545 178.688C218.822 180.193 237.437 178.901 241.084 171.85C244.731 164.799 239.777 151.305 239.777 151.305L231.222 152.597Z" fill="#F44336"/>
<path d="M260.945 151.305L253.028 153.023C253.028 153.023 256.447 167.352 253.666 172.063C250.885 176.774 240.917 181.803 239.123 185.754C237.513 189.28 241.479 192.167 247.679 188.322C253.879 184.478 260.899 178.734 262.221 175.907C265.443 169.069 260.945 151.305 260.945 151.305Z" fill="#F44336"/>
<path d="M206.832 43.2787C189.996 47.0625 176.882 61.2553 181.805 82.8485C184.723 95.6586 186.516 100.172 187.579 105.946C189.828 118.088 189.221 123.421 194.357 134.545C199.812 146.382 219.886 161.578 244.913 157.931C269.941 154.284 280 150.865 280 150.865L288.981 142.948L297.536 140.805L298.812 134.605C298.812 134.605 305.21 134.317 306.517 132.25C308.583 128.968 307.368 126.263 303.736 124.971C300.104 123.695 297.962 122.616 297.962 122.616C297.962 122.616 333.261 99.2903 337.531 96.7375C341.801 94.1846 348.442 89.7778 348.761 88.1822C349.566 84.125 338.595 75.1291 324.265 70.8591C309.936 66.5738 297.627 65.4038 295.606 67.0145C292.917 69.1267 281.064 91.4037 273.147 90.34C262.874 88.942 255.824 79.3231 253.894 73.8678C251.706 67.6831 238.561 36.1519 206.832 43.2787Z" fill="#4791DB"/>
<path d="M185.224 76.6487C182.656 76.2232 176.091 83.2133 174.815 84.9152C173.539 86.6171 171.517 89.0636 172.247 90.9023C173.387 93.7591 179.237 93.9111 182.656 94.1846C186.227 94.4733 193.065 95.0356 194.205 92.9082C195.344 90.7656 192.928 85.3559 190.922 82.0736C189.069 79.0192 187.899 77.1046 185.224 76.6487V76.6487Z" fill="#FFB74D"/>
<path d="M213.201 82.8466C216.55 82.4424 218.91 79.1699 218.472 75.5372C218.033 71.9044 214.963 69.2871 211.613 69.6913C208.264 70.0954 205.904 73.3679 206.342 77.0007C206.781 80.6334 209.851 83.2507 213.201 82.8466Z" fill="#2A2D2F"/>
<path d="M232.498 122.008C229.535 123.087 233.425 133.557 237.422 138.268C241.631 143.221 251.812 154.345 267.372 155.803C277.933 156.806 282.629 153.813 285.121 151.093C286.975 149.072 288.966 146.732 290.333 145.668C292.324 144.103 294.33 145.455 297.749 142.963C300.21 141.17 300.742 138.192 302.034 137.113C303.31 136.049 305.483 136.292 306.593 135.259C308.583 133.405 308.31 127.98 306.881 127.706C305.453 127.433 305.316 131.551 303.888 132.128C302.459 132.706 300.56 132.341 297.901 133.846C295.621 135.122 296.336 137.69 294.77 138.83C293.205 139.969 290.348 138.404 286.504 140.547C284.422 141.702 282.659 147.248 276.657 148.54C269.211 150.135 258.042 144.711 252.693 140.836C240.278 131.84 237.558 120.154 232.498 122.008Z" fill="#1976D2"/>
</svg>
