<svg width="520" height="293" viewBox="0 0 520 293" fill="none" xmlns="http://www.w3.org/2000/svg">
<rect width="520" height="292.5" fill="#F6F5F5"/>
<rect x="0.25" y="0.25" width="519.5" height="292" fill="black" stroke="white" stroke-width="0.5"/>
<path d="M243.359 208.793C243.359 213.234 242.339 216.805 240.298 219.509C238.257 222.194 235.518 223.537 232.08 223.537C228.41 223.537 225.572 222.239 223.567 219.643L223.325 223H218.76V181.75H223.728V197.138C225.733 194.65 228.499 193.405 232.026 193.405C235.553 193.405 238.319 194.739 240.325 197.407C242.348 200.074 243.359 203.727 243.359 208.364V208.793ZM238.391 208.229C238.391 204.846 237.738 202.232 236.431 200.388C235.124 198.544 233.244 197.622 230.791 197.622C227.515 197.622 225.16 199.143 223.728 202.187V214.755C225.25 217.799 227.622 219.321 230.845 219.321C233.226 219.321 235.079 218.399 236.404 216.555C237.729 214.711 238.391 211.936 238.391 208.229ZM254.217 223H249.248V193.942H254.217V223ZM248.845 186.235C248.845 185.429 249.087 184.749 249.571 184.194C250.072 183.639 250.806 183.361 251.773 183.361C252.739 183.361 253.474 183.639 253.975 184.194C254.476 184.749 254.727 185.429 254.727 186.235C254.727 187.041 254.476 187.712 253.975 188.249C253.474 188.786 252.739 189.055 251.773 189.055C250.806 189.055 250.072 188.786 249.571 188.249C249.087 187.712 248.845 187.041 248.845 186.235ZM275.413 198.4C274.661 198.275 273.846 198.212 272.969 198.212C269.711 198.212 267.5 199.6 266.336 202.375V223H261.368V193.942H266.202L266.282 197.299C267.911 194.703 270.221 193.405 273.211 193.405C274.178 193.405 274.912 193.531 275.413 193.781V198.4ZM277.435 208.229C277.435 203.771 278.491 200.191 280.604 197.487C282.716 194.766 285.482 193.405 288.902 193.405C292.304 193.405 294.998 194.569 296.985 196.896V181.75H301.954V223H297.388L297.147 219.885C295.159 222.32 292.393 223.537 288.848 223.537C285.482 223.537 282.734 222.159 280.604 219.401C278.491 216.644 277.435 213.046 277.435 208.605V208.229ZM282.403 208.793C282.403 212.088 283.083 214.666 284.444 216.528C285.805 218.39 287.685 219.321 290.084 219.321C293.235 219.321 295.535 217.906 296.985 215.078V201.73C295.499 198.991 293.217 197.622 290.137 197.622C287.702 197.622 285.805 198.562 284.444 200.441C283.083 202.321 282.403 205.105 282.403 208.793Z" fill="white"/>
<path d="M253.445 239.745H249.89V247.44C249.89 254.415 246.515 261.615 240.935 264.855L243.275 267.645C247.235 265.215 250.205 260.67 251.645 255.405C253.085 260.22 255.875 264.36 259.7 266.61L261.905 263.685C256.55 260.715 253.445 253.875 253.445 247.305V239.745ZM272.165 235.965V252.21H266.81V236.865H263.3V274.305H266.81V255.225H272.165V276.33H275.675V235.965H272.165Z" fill="white"/>
<rect x="179" y="8" width="162" height="162" fill="black"/>
<rect x="179" y="8" width="162" height="162" fill="black"/>
<rect x="179" y="8" width="162" height="162" stroke="white" stroke-width="0.5"/>
<path d="M237.272 124.67C237.272 124.67 240.592 133.597 238.677 136.743C236.75 139.888 229.054 139.279 226.692 140.771C225.001 141.84 225.026 144.799 226.083 146.018C227.127 147.249 242.357 146.192 245.341 140.423C248.325 134.654 244.272 123.614 244.272 123.614L237.272 124.67Z" fill="#F44336"/>
<path d="M261.591 123.614L255.113 125.019C255.113 125.019 257.911 136.743 255.636 140.597C253.36 144.451 245.204 148.566 243.737 151.799C242.419 154.683 245.664 157.046 250.737 153.9C255.81 150.755 261.554 146.055 262.635 143.742C265.271 138.148 261.591 123.614 261.591 123.614Z" fill="#F44336"/>
<path d="M217.317 35.2281C203.542 38.3239 192.812 49.9362 196.84 67.6034C199.228 78.0843 200.695 81.7769 201.565 86.5014C203.405 96.4353 202.908 100.799 207.11 109.9C211.573 119.585 227.997 132.018 248.474 129.034C268.951 126.05 277.182 123.253 277.182 123.253L284.53 116.775L291.529 115.022L292.574 109.95C292.574 109.95 297.808 109.714 298.877 108.023C300.568 105.337 299.574 103.124 296.602 102.067C293.631 101.023 291.878 100.14 291.878 100.14C291.878 100.14 320.759 81.0558 324.253 78.967C327.747 76.8783 333.18 73.2728 333.441 71.9673C334.1 68.6477 325.123 61.2874 313.399 57.7938C301.675 54.2877 291.604 53.3304 289.95 54.6483C287.75 56.3764 278.052 74.6031 271.575 73.7328C263.17 72.5889 257.401 64.7189 255.822 60.2555C254.032 55.1953 243.277 29.397 217.317 35.2281Z" fill="#4791DB"/>
<path d="M199.638 62.5307C197.537 62.1826 192.166 67.9018 191.121 69.2942C190.077 70.6867 188.423 72.6884 189.02 74.1928C189.953 76.5302 194.739 76.6545 197.537 76.8783C200.458 77.1145 206.053 77.5746 206.986 75.8339C207.918 74.0809 205.941 69.6548 204.3 66.9693C202.783 64.4703 201.826 62.9037 199.638 62.5307V62.5307Z" fill="#FFB74D"/>
<path d="M222.528 67.6017C225.268 67.2711 227.199 64.5935 226.84 61.6213C226.482 58.6491 223.969 56.5076 221.229 56.8383C218.489 57.169 216.558 59.8465 216.916 62.8187C217.275 65.791 219.787 67.9324 222.528 67.6017Z" fill="#2A2D2F"/>
<path d="M238.317 99.6429C235.892 100.526 239.075 109.092 242.345 112.946C245.789 116.999 254.119 126.1 266.85 127.294C275.491 128.114 279.333 125.665 281.372 123.44C282.889 121.786 284.517 119.871 285.636 119.001C287.265 117.72 288.906 118.827 291.704 116.788C293.718 115.321 294.153 112.884 295.21 112.001C296.254 111.131 298.032 111.33 298.939 110.484C300.568 108.968 300.344 104.529 299.176 104.305C298.007 104.081 297.895 107.451 296.726 107.923C295.558 108.396 294.004 108.097 291.828 109.328C289.963 110.373 290.547 112.474 289.267 113.406C287.986 114.339 285.649 113.058 282.503 114.811C280.8 115.756 279.358 120.294 274.447 121.351C268.355 122.656 259.216 118.218 254.84 115.047C244.682 107.687 242.457 98.1261 238.317 99.6429Z" fill="#1976D2"/>
</svg>
