<svg width="1388" height="2317" viewBox="0 0 1388 2317" fill="none" xmlns="http://www.w3.org/2000/svg">
<rect width="1388" height="2317" fill="white" fill-opacity="0.26"/>
<path d="M124 264C103.013 264 86 246.987 86 226C86 205.013 103.013 188 124 188C144.987 188 162 205.013 162 226C162 246.987 144.987 264 124 264ZM124 256.4C132.063 256.4 139.795 253.197 145.496 247.496C151.197 241.795 154.4 234.063 154.4 226C154.4 217.937 151.197 210.205 145.496 204.504C139.795 198.803 132.063 195.6 124 195.6C115.937 195.6 108.205 198.803 102.504 204.504C96.8028 210.205 93.6 217.937 93.6 226C93.6 234.063 96.8028 241.795 102.504 247.496C108.205 253.197 115.937 256.4 124 256.4V256.4ZM120.211 241.2L104.088 225.077L109.461 219.703L120.211 230.454L141.704 208.957L147.081 214.33L120.211 241.2Z" fill="#4CAF50"/>
<path d="M124 573C103.013 573 86 555.987 86 535C86 514.013 103.013 497 124 497C144.987 497 162 514.013 162 535C162 555.987 144.987 573 124 573ZM124 565.4C132.063 565.4 139.795 562.197 145.496 556.496C151.197 550.795 154.4 543.063 154.4 535C154.4 526.937 151.197 519.205 145.496 513.504C139.795 507.803 132.063 504.6 124 504.6C115.937 504.6 108.205 507.803 102.504 513.504C96.8028 519.205 93.6 526.937 93.6 535C93.6 543.063 96.8028 550.795 102.504 556.496C108.205 562.197 115.937 565.4 124 565.4V565.4ZM120.211 550.2L104.088 534.077L109.461 528.703L120.211 539.454L141.704 517.957L147.081 523.33L120.211 550.2Z" fill="#4CAF50"/>
<path d="M124 883C103.013 883 86 865.987 86 845C86 824.013 103.013 807 124 807C144.987 807 162 824.013 162 845C162 865.987 144.987 883 124 883ZM124 875.4C132.063 875.4 139.795 872.197 145.496 866.496C151.197 860.795 154.4 853.063 154.4 845C154.4 836.937 151.197 829.205 145.496 823.504C139.795 817.803 132.063 814.6 124 814.6C115.937 814.6 108.205 817.803 102.504 823.504C96.8028 829.205 93.6 836.937 93.6 845C93.6 853.063 96.8028 860.795 102.504 866.496C108.205 872.197 115.937 875.4 124 875.4V875.4ZM120.211 860.2L104.088 844.077L109.461 838.703L120.211 849.454L141.704 827.957L147.081 833.33L120.211 860.2Z" fill="#4CAF50"/>
<path d="M124 1192C103.013 1192 86 1174.99 86 1154C86 1133.01 103.013 1116 124 1116C144.987 1116 162 1133.01 162 1154C162 1174.99 144.987 1192 124 1192ZM124 1184.4C132.063 1184.4 139.795 1181.2 145.496 1175.5C151.197 1169.79 154.4 1162.06 154.4 1154C154.4 1145.94 151.197 1138.21 145.496 1132.5C139.795 1126.8 132.063 1123.6 124 1123.6C115.937 1123.6 108.205 1126.8 102.504 1132.5C96.8028 1138.21 93.6 1145.94 93.6 1154C93.6 1162.06 96.8028 1169.79 102.504 1175.5C108.205 1181.2 115.937 1184.4 124 1184.4V1184.4ZM120.211 1169.2L104.088 1153.08L109.461 1147.7L120.211 1158.45L141.704 1136.96L147.081 1142.33L120.211 1169.2Z" fill="#4CAF50"/>
<path d="M124 1509C103.013 1509 86 1491.99 86 1471C86 1450.01 103.013 1433 124 1433C144.987 1433 162 1450.01 162 1471C162 1491.99 144.987 1509 124 1509ZM124 1501.4C132.063 1501.4 139.795 1498.2 145.496 1492.5C151.197 1486.79 154.4 1479.06 154.4 1471C154.4 1462.94 151.197 1455.21 145.496 1449.5C139.795 1443.8 132.063 1440.6 124 1440.6C115.937 1440.6 108.205 1443.8 102.504 1449.5C96.8028 1455.21 93.6 1462.94 93.6 1471C93.6 1479.06 96.8028 1486.79 102.504 1492.5C108.205 1498.2 115.937 1501.4 124 1501.4V1501.4ZM120.211 1486.2L104.088 1470.08L109.461 1464.7L120.211 1475.45L141.704 1453.96L147.081 1459.33L120.211 1486.2Z" fill="#4CAF50"/>
<path d="M124 1820C103.013 1820 86 1802.99 86 1782C86 1761.01 103.013 1744 124 1744C144.987 1744 162 1761.01 162 1782C162 1802.99 144.987 1820 124 1820ZM124 1812.4C132.063 1812.4 139.795 1809.2 145.496 1803.5C151.197 1797.79 154.4 1790.06 154.4 1782C154.4 1773.94 151.197 1766.21 145.496 1760.5C139.795 1754.8 132.063 1751.6 124 1751.6C115.937 1751.6 108.205 1754.8 102.504 1760.5C96.8028 1766.21 93.6 1773.94 93.6 1782C93.6 1790.06 96.8028 1797.79 102.504 1803.5C108.205 1809.2 115.937 1812.4 124 1812.4V1812.4ZM120.211 1797.2L104.088 1781.08L109.461 1775.7L120.211 1786.45L141.704 1764.96L147.081 1770.33L120.211 1797.2Z" fill="#4CAF50"/>
<path d="M124 2119C103.013 2119 86 2101.99 86 2081C86 2060.01 103.013 2043 124 2043C144.987 2043 162 2060.01 162 2081C162 2101.99 144.987 2119 124 2119ZM124 2111.4C132.063 2111.4 139.795 2108.2 145.496 2102.5C151.197 2096.79 154.4 2089.06 154.4 2081C154.4 2072.94 151.197 2065.21 145.496 2059.5C139.795 2053.8 132.063 2050.6 124 2050.6C115.937 2050.6 108.205 2053.8 102.504 2059.5C96.8028 2065.21 93.6 2072.94 93.6 2081C93.6 2089.06 96.8028 2096.79 102.504 2102.5C108.205 2108.2 115.937 2111.4 124 2111.4V2111.4ZM120.211 2096.2L104.088 2080.08L109.461 2074.7L120.211 2085.45L141.704 2063.96L147.081 2069.33L120.211 2096.2Z" fill="#4CAF50"/>
<rect x="218.25" y="1636.25" width="519.5" height="292" fill="white" stroke="black" stroke-width="0.5"/>
<rect x="775.25" y="1636.25" width="519.5" height="292" fill="white" stroke="black" stroke-width="0.5"/>
<path d="M450.828 1790.04C450.828 1796.91 449.251 1802.43 446.097 1806.6C442.942 1810.75 438.709 1812.83 433.396 1812.83C427.724 1812.83 423.339 1810.82 420.24 1806.81L419.866 1812H412.811V1748.25H420.489V1772.03C423.588 1768.19 427.863 1766.26 433.313 1766.26C438.764 1766.26 443.039 1768.32 446.138 1772.45C449.265 1776.57 450.828 1782.21 450.828 1789.38V1790.04ZM443.15 1789.17C443.15 1783.94 442.14 1779.9 440.12 1777.05C438.1 1774.2 435.195 1772.78 431.404 1772.78C426.341 1772.78 422.702 1775.13 420.489 1779.83V1799.26C422.841 1803.96 426.507 1806.31 431.487 1806.31C435.167 1806.31 438.031 1804.89 440.079 1802.04C442.126 1799.19 443.15 1794.9 443.15 1789.17ZM467.607 1812H459.929V1767.09H467.607V1812ZM459.307 1755.18C459.307 1753.94 459.68 1752.88 460.427 1752.03C461.202 1751.17 462.336 1750.74 463.83 1750.74C465.325 1750.74 466.459 1751.17 467.234 1752.03C468.009 1752.88 468.396 1753.94 468.396 1755.18C468.396 1756.43 468.009 1757.46 467.234 1758.29C466.459 1759.12 465.325 1759.54 463.83 1759.54C462.336 1759.54 461.202 1759.12 460.427 1758.29C459.68 1757.46 459.307 1756.43 459.307 1755.18ZM500.366 1773.98C499.203 1773.79 497.944 1773.69 496.589 1773.69C491.553 1773.69 488.136 1775.84 486.337 1780.12V1812H478.659V1767.09H486.13L486.254 1772.28C488.772 1768.27 492.341 1766.26 496.962 1766.26C498.456 1766.26 499.591 1766.46 500.366 1766.84V1773.98ZM503.49 1789.17C503.49 1782.28 505.122 1776.75 508.387 1772.57C511.652 1768.37 515.927 1766.26 521.212 1766.26C526.469 1766.26 530.633 1768.06 533.705 1771.66V1748.25H541.383V1812H534.327L533.954 1807.19C530.883 1810.95 526.608 1812.83 521.129 1812.83C515.927 1812.83 511.68 1810.7 508.387 1806.44C505.122 1802.18 503.49 1796.62 503.49 1789.75V1789.17ZM511.168 1790.04C511.168 1795.14 512.22 1799.12 514.322 1802C516.425 1804.88 519.331 1806.31 523.038 1806.31C527.908 1806.31 531.464 1804.13 533.705 1799.76V1779.13C531.408 1774.9 527.88 1772.78 523.121 1772.78C519.358 1772.78 516.425 1774.23 514.322 1777.14C512.22 1780.04 511.168 1784.34 511.168 1790.04Z" fill="black"/>
<path d="M1022.29 1757.18H1015.57V1771.72C1015.57 1784.89 1009.2 1798.49 998.655 1804.61L1003.08 1809.88C1010.56 1805.29 1016.17 1796.71 1018.89 1786.76C1021.61 1795.86 1026.88 1803.68 1034.1 1807.93L1038.27 1802.4C1028.15 1796.79 1022.29 1783.87 1022.29 1771.46V1757.18ZM1057.65 1750.04V1780.73H1047.53V1751.74H1040.9V1822.47H1047.53V1786.42H1057.65V1826.29H1064.28V1750.04H1057.65Z" fill="black"/>
<rect x="217" y="1945" width="520" height="292.5" fill="#F6F5F5"/>
<rect x="217.25" y="1945.25" width="519.5" height="292" fill="white" stroke="black" stroke-width="0.5"/>
<rect x="775.25" y="1945.25" width="519.5" height="292" fill="white" stroke="black" stroke-width="0.5"/>
<path d="M465.285 2059.18H458.57V2073.72C458.57 2086.89 452.195 2100.49 441.655 2106.61L446.075 2111.88C453.555 2107.29 459.165 2098.71 461.885 2088.76C464.605 2097.86 469.875 2105.68 477.1 2109.93L481.265 2104.4C471.15 2098.79 465.285 2085.87 465.285 2073.46V2059.18ZM500.645 2052.04V2082.73H490.53V2053.74H483.9V2124.47H490.53V2088.42H500.645V2128.29H507.275V2052.04H500.645Z" fill="black"/>
<path d="M1007.83 2098.04C1007.83 2104.91 1006.25 2110.43 1003.1 2114.6C999.942 2118.75 995.709 2120.83 990.396 2120.83C984.724 2120.83 980.339 2118.82 977.24 2114.81L976.866 2120H969.811V2056.25H977.489V2080.03C980.588 2076.19 984.863 2074.26 990.313 2074.26C995.764 2074.26 1000.04 2076.32 1003.14 2080.45C1006.26 2084.57 1007.83 2090.21 1007.83 2097.38V2098.04ZM1000.15 2097.17C1000.15 2091.94 999.14 2087.9 997.12 2085.05C995.1 2082.2 992.195 2080.78 988.404 2080.78C983.341 2080.78 979.702 2083.13 977.489 2087.83V2107.26C979.841 2111.96 983.507 2114.31 988.487 2114.31C992.167 2114.31 995.031 2112.89 997.079 2110.04C999.126 2107.19 1000.15 2102.9 1000.15 2097.17ZM1024.61 2120H1016.93V2075.09H1024.61V2120ZM1016.31 2063.18C1016.31 2061.94 1016.68 2060.88 1017.43 2060.03C1018.2 2059.17 1019.34 2058.74 1020.83 2058.74C1022.32 2058.74 1023.46 2059.17 1024.23 2060.03C1025.01 2060.88 1025.4 2061.94 1025.4 2063.18C1025.4 2064.43 1025.01 2065.46 1024.23 2066.29C1023.46 2067.12 1022.32 2067.54 1020.83 2067.54C1019.34 2067.54 1018.2 2067.12 1017.43 2066.29C1016.68 2065.46 1016.31 2064.43 1016.31 2063.18ZM1057.37 2081.98C1056.2 2081.79 1054.94 2081.69 1053.59 2081.69C1048.55 2081.69 1045.14 2083.84 1043.34 2088.12V2120H1035.66V2075.09H1043.13L1043.25 2080.28C1045.77 2076.27 1049.34 2074.26 1053.96 2074.26C1055.46 2074.26 1056.59 2074.46 1057.37 2074.84V2081.98ZM1060.49 2097.17C1060.49 2090.28 1062.12 2084.75 1065.39 2080.57C1068.65 2076.37 1072.93 2074.26 1078.21 2074.26C1083.47 2074.26 1087.63 2076.06 1090.7 2079.66V2056.25H1098.38V2120H1091.33L1090.95 2115.19C1087.88 2118.95 1083.61 2120.83 1078.13 2120.83C1072.93 2120.83 1068.68 2118.7 1065.39 2114.44C1062.12 2110.18 1060.49 2104.62 1060.49 2097.75V2097.17ZM1068.17 2098.04C1068.17 2103.14 1069.22 2107.12 1071.32 2110C1073.43 2112.88 1076.33 2114.31 1080.04 2114.31C1084.91 2114.31 1088.46 2112.13 1090.7 2107.76V2087.13C1088.41 2082.9 1084.88 2080.78 1080.12 2080.78C1076.36 2080.78 1073.43 2082.23 1071.32 2085.14C1069.22 2088.04 1068.17 2092.34 1068.17 2098.04Z" fill="black"/>
<rect x="218.25" y="80.25" width="519.5" height="292" fill="white" stroke="black" stroke-width="0.5"/>
<path d="M462.359 124.793C462.359 129.234 461.339 132.805 459.298 135.509C457.257 138.194 454.518 139.537 451.08 139.537C447.41 139.537 444.572 138.239 442.567 135.643L442.325 139H437.76V97.75H442.728V113.138C444.733 110.65 447.499 109.405 451.026 109.405C454.553 109.405 457.319 110.739 459.325 113.407C461.348 116.074 462.359 119.727 462.359 124.364V124.793ZM457.391 124.229C457.391 120.846 456.738 118.232 455.431 116.388C454.124 114.544 452.244 113.622 449.791 113.622C446.515 113.622 444.16 115.143 442.728 118.187V130.755C444.25 133.799 446.622 135.321 449.845 135.321C452.226 135.321 454.079 134.399 455.404 132.555C456.729 130.711 457.391 127.936 457.391 124.229ZM473.217 139H468.248V109.942H473.217V139ZM467.845 102.235C467.845 101.429 468.087 100.749 468.571 100.194C469.072 99.6388 469.806 99.3613 470.773 99.3613C471.739 99.3613 472.474 99.6388 472.975 100.194C473.476 100.749 473.727 101.429 473.727 102.235C473.727 103.041 473.476 103.712 472.975 104.249C472.474 104.786 471.739 105.055 470.773 105.055C469.806 105.055 469.072 104.786 468.571 104.249C468.087 103.712 467.845 103.041 467.845 102.235ZM494.413 114.4C493.661 114.275 492.846 114.212 491.969 114.212C488.711 114.212 486.5 115.6 485.336 118.375V139H480.368V109.942H485.202L485.282 113.299C486.911 110.703 489.221 109.405 492.211 109.405C493.178 109.405 493.912 109.531 494.413 109.781V114.4ZM496.435 124.229C496.435 119.771 497.491 116.191 499.604 113.487C501.716 110.766 504.482 109.405 507.902 109.405C511.304 109.405 513.998 110.569 515.985 112.896V97.75H520.954V139H516.388L516.147 135.885C514.159 138.32 511.393 139.537 507.848 139.537C504.482 139.537 501.734 138.159 499.604 135.401C497.491 132.644 496.435 129.046 496.435 124.605V124.229ZM501.403 124.793C501.403 128.088 502.083 130.666 503.444 132.528C504.805 134.39 506.685 135.321 509.084 135.321C512.235 135.321 514.535 133.906 515.985 131.078V117.73C514.499 114.991 512.217 113.622 509.137 113.622C506.702 113.622 504.805 114.562 503.444 116.441C502.083 118.321 501.403 121.105 501.403 124.793Z" fill="black"/>
<rect x="381" y="165" width="198" height="198" fill="white"/>
<rect x="381" y="165" width="198" height="198" fill="white"/>
<rect x="381" y="165" width="198" height="198" stroke="black" stroke-width="0.5"/>
<path d="M452.222 307.597C452.222 307.597 456.279 318.508 453.939 322.352C451.583 326.197 442.177 325.452 439.29 327.276C437.223 328.582 437.254 332.199 438.545 333.688C439.822 335.193 458.437 333.901 462.084 326.85C465.731 319.799 460.777 306.305 460.777 306.305L452.222 307.597Z" fill="#F44336"/>
<path d="M481.945 306.305L474.028 308.023C474.028 308.023 477.447 322.352 474.666 327.063C471.885 331.774 461.916 336.803 460.123 340.754C458.513 344.28 462.479 347.167 468.679 343.322C474.878 339.478 481.899 333.734 483.221 330.907C486.442 324.069 481.945 306.305 481.945 306.305Z" fill="#F44336"/>
<path d="M427.832 198.279C410.995 202.062 397.882 216.255 402.805 237.849C405.723 250.659 407.516 255.172 408.579 260.946C410.828 273.088 410.22 278.421 415.357 289.545C420.812 301.382 440.886 316.578 465.913 312.931C490.94 309.284 501 305.865 501 305.865L509.981 297.948L518.536 295.805L519.812 289.605C519.812 289.605 526.21 289.317 527.517 287.25C529.583 283.968 528.368 281.263 524.736 279.971C521.104 278.695 518.961 277.616 518.961 277.616C518.961 277.616 554.261 254.29 558.531 251.737C562.801 249.185 569.442 244.778 569.761 243.182C570.566 239.125 559.595 230.129 545.265 225.859C530.936 221.574 518.627 220.404 516.606 222.015C513.916 224.127 502.064 246.404 494.147 245.34C483.874 243.942 476.824 234.323 474.894 228.868C472.706 222.683 459.561 191.152 427.832 198.279Z" fill="#4791DB"/>
<path d="M406.224 231.649C403.656 231.223 397.092 238.213 395.815 239.915C394.539 241.617 392.518 244.064 393.247 245.902C394.387 248.759 400.237 248.911 403.656 249.185C407.227 249.473 414.065 250.036 415.205 247.908C416.345 245.766 413.928 240.356 411.923 237.074C410.069 234.019 408.899 232.105 406.224 231.649V231.649Z" fill="#FFB74D"/>
<path d="M434.201 237.847C437.55 237.442 439.91 234.17 439.472 230.537C439.033 226.904 435.963 224.287 432.613 224.691C429.264 225.095 426.904 228.368 427.342 232.001C427.781 235.633 430.851 238.251 434.201 237.847Z" fill="#2A2D2F"/>
<path d="M453.498 277.008C450.535 278.087 454.425 288.557 458.422 293.268C462.631 298.221 472.812 309.345 488.372 310.803C498.934 311.806 503.629 308.813 506.121 306.093C507.975 304.072 509.966 301.732 511.333 300.668C513.324 299.103 515.33 300.455 518.749 297.963C521.211 296.17 521.742 293.192 523.034 292.113C524.31 291.049 526.483 291.292 527.593 290.259C529.583 288.405 529.31 282.98 527.881 282.706C526.453 282.433 526.316 286.551 524.888 287.128C523.459 287.706 521.56 287.341 518.901 288.846C516.621 290.122 517.336 292.69 515.77 293.83C514.205 294.969 511.348 293.404 507.504 295.547C505.422 296.702 503.659 302.248 497.657 303.54C490.211 305.135 479.042 299.711 473.693 295.836C461.278 286.84 458.558 275.154 453.498 277.008Z" fill="#1976D2"/>
<rect x="219.25" y="1316.25" width="519.5" height="292" fill="white" stroke="black" stroke-width="0.5"/>
<path d="M776.25 1316.25H1295.75V1608.25H776.25V1316.25Z" fill="white" stroke="black" stroke-width="0.5"/>
<path d="M1004.83 1470.04C1004.83 1476.91 1003.25 1482.43 1000.1 1486.6C996.942 1490.75 992.709 1492.83 987.396 1492.83C981.724 1492.83 977.339 1490.82 974.24 1486.81L973.866 1492H966.811V1428.25H974.489V1452.03C977.588 1448.19 981.863 1446.26 987.313 1446.26C992.764 1446.26 997.039 1448.32 1000.14 1452.45C1003.26 1456.57 1004.83 1462.21 1004.83 1469.38V1470.04ZM997.15 1469.17C997.15 1463.94 996.14 1459.9 994.12 1457.05C992.1 1454.2 989.195 1452.78 985.404 1452.78C980.341 1452.78 976.702 1455.13 974.489 1459.83V1479.26C976.841 1483.96 980.507 1486.31 985.487 1486.31C989.167 1486.31 992.031 1484.89 994.079 1482.04C996.126 1479.19 997.15 1474.9 997.15 1469.17ZM1021.61 1492H1013.93V1447.09H1021.61V1492ZM1013.31 1435.18C1013.31 1433.94 1013.68 1432.88 1014.43 1432.03C1015.2 1431.17 1016.34 1430.74 1017.83 1430.74C1019.32 1430.74 1020.46 1431.17 1021.23 1432.03C1022.01 1432.88 1022.4 1433.94 1022.4 1435.18C1022.4 1436.43 1022.01 1437.46 1021.23 1438.29C1020.46 1439.12 1019.32 1439.54 1017.83 1439.54C1016.34 1439.54 1015.2 1439.12 1014.43 1438.29C1013.68 1437.46 1013.31 1436.43 1013.31 1435.18ZM1054.37 1453.98C1053.2 1453.79 1051.94 1453.69 1050.59 1453.69C1045.55 1453.69 1042.14 1455.84 1040.34 1460.12V1492H1032.66V1447.09H1040.13L1040.25 1452.28C1042.77 1448.27 1046.34 1446.26 1050.96 1446.26C1052.46 1446.26 1053.59 1446.46 1054.37 1446.84V1453.98ZM1057.49 1469.17C1057.49 1462.28 1059.12 1456.75 1062.39 1452.57C1065.65 1448.37 1069.93 1446.26 1075.21 1446.26C1080.47 1446.26 1084.63 1448.06 1087.7 1451.66V1428.25H1095.38V1492H1088.33L1087.95 1487.19C1084.88 1490.95 1080.61 1492.83 1075.13 1492.83C1069.93 1492.83 1065.68 1490.7 1062.39 1486.44C1059.12 1482.18 1057.49 1476.62 1057.49 1469.75V1469.17ZM1065.17 1470.04C1065.17 1475.14 1066.22 1479.12 1068.32 1482C1070.43 1484.88 1073.33 1486.31 1077.04 1486.31C1081.91 1486.31 1085.46 1484.13 1087.7 1479.76V1459.13C1085.41 1454.9 1081.88 1452.78 1077.12 1452.78C1073.36 1452.78 1070.43 1454.23 1068.32 1457.14C1066.22 1460.04 1065.17 1464.34 1065.17 1470.04Z" fill="black"/>
<rect x="349" y="1332" width="260" height="260" fill="white"/>
<rect x="349" y="1332" width="260" height="260" fill="white"/>
<rect x="349" y="1332" width="260" height="260" stroke="black" stroke-width="0.5"/>
<path d="M442.523 1519.25C442.523 1519.25 447.851 1533.58 444.778 1538.62C441.685 1543.67 429.334 1542.69 425.543 1545.09C422.829 1546.81 422.869 1551.55 424.565 1553.51C426.241 1555.49 450.685 1553.79 455.474 1544.53C460.263 1535.27 453.758 1517.55 453.758 1517.55L442.523 1519.25Z" fill="#F44336"/>
<path d="M481.554 1517.55L471.158 1519.81C471.158 1519.81 475.647 1538.62 471.996 1544.81C468.344 1551 455.254 1557.6 452.9 1562.79C450.784 1567.42 455.992 1571.21 464.134 1566.16C472.275 1561.11 481.494 1553.57 483.23 1549.86C487.46 1540.88 481.554 1517.55 481.554 1517.55Z" fill="#F44336"/>
<path d="M410.497 1375.7C388.388 1380.67 371.168 1399.3 377.633 1427.66C381.464 1444.48 383.819 1450.41 385.216 1457.99C388.169 1473.93 387.371 1480.94 394.115 1495.54C401.279 1511.09 427.638 1531.04 460.502 1526.25C493.366 1521.46 506.576 1516.97 506.576 1516.97L518.369 1506.58L529.603 1503.76L531.279 1495.62C531.279 1495.62 539.68 1495.24 541.396 1492.53C544.11 1488.22 542.513 1484.67 537.744 1482.97C532.975 1481.3 530.162 1479.88 530.162 1479.88C530.162 1479.88 576.515 1449.25 582.122 1445.9C587.729 1442.55 596.449 1436.76 596.868 1434.66C597.926 1429.34 583.519 1417.52 564.702 1411.92C545.886 1406.29 529.723 1404.75 527.069 1406.87C523.537 1409.64 507.973 1438.89 497.577 1437.5C484.088 1435.66 474.829 1423.03 472.295 1415.87C469.422 1407.75 452.161 1366.34 410.497 1375.7Z" fill="#4791DB"/>
<path d="M382.123 1419.52C378.75 1418.96 370.13 1428.14 368.454 1430.37C366.778 1432.61 364.124 1435.82 365.082 1438.24C366.578 1441.99 374.261 1442.19 378.75 1442.55C383.439 1442.92 392.419 1443.66 393.915 1440.87C395.412 1438.06 392.239 1430.95 389.605 1426.64C387.171 1422.63 385.634 1420.12 382.123 1419.52V1419.52Z" fill="#FFB74D"/>
<path d="M418.859 1427.66C423.258 1427.13 426.357 1422.83 425.781 1418.06C425.205 1413.29 421.173 1409.85 416.775 1410.38C412.377 1410.91 409.278 1415.21 409.853 1419.98C410.429 1424.75 414.461 1428.19 418.859 1427.66Z" fill="#2A2D2F"/>
<path d="M444.2 1479.08C440.308 1480.5 445.417 1494.25 450.665 1500.43C456.192 1506.94 469.561 1521.54 489.994 1523.46C503.862 1524.78 510.028 1520.85 513.3 1517.27C515.735 1514.62 518.349 1511.55 520.145 1510.15C522.759 1508.09 525.393 1509.87 529.882 1506.6C533.115 1504.24 533.813 1500.33 535.509 1498.92C537.185 1497.52 540.039 1497.84 541.495 1496.48C544.109 1494.05 543.75 1486.92 541.875 1486.56C539.999 1486.2 539.819 1491.61 537.944 1492.37C536.068 1493.13 533.574 1492.65 530.082 1494.63C527.089 1496.3 528.026 1499.67 525.971 1501.17C523.916 1502.67 520.165 1500.61 515.116 1503.43C512.382 1504.94 510.068 1512.22 502.186 1513.92C492.408 1516.02 477.742 1508.89 470.718 1503.8C454.416 1491.99 450.844 1476.65 444.2 1479.08Z" fill="#1976D2"/>
<rect x="218" y="698" width="520" height="292.5" fill="#F6F5F5"/>
<rect x="218.25" y="698.25" width="519.5" height="292" fill="white" stroke="black" stroke-width="0.5"/>
<path d="M461.359 741.793C461.359 746.234 460.339 749.805 458.298 752.509C456.257 755.194 453.518 756.537 450.08 756.537C446.41 756.537 443.572 755.239 441.567 752.643L441.325 756H436.76V714.75H441.728V730.138C443.733 727.65 446.499 726.405 450.026 726.405C453.553 726.405 456.319 727.739 458.325 730.407C460.348 733.074 461.359 736.727 461.359 741.364V741.793ZM456.391 741.229C456.391 737.846 455.738 735.232 454.431 733.388C453.124 731.544 451.244 730.622 448.791 730.622C445.515 730.622 443.16 732.143 441.728 735.187V747.755C443.25 750.799 445.622 752.321 448.845 752.321C451.226 752.321 453.079 751.399 454.404 749.555C455.729 747.711 456.391 744.936 456.391 741.229ZM472.217 756H467.248V726.942H472.217V756ZM466.845 719.235C466.845 718.429 467.087 717.749 467.571 717.194C468.072 716.639 468.806 716.361 469.773 716.361C470.739 716.361 471.474 716.639 471.975 717.194C472.476 717.749 472.727 718.429 472.727 719.235C472.727 720.041 472.476 720.712 471.975 721.249C471.474 721.786 470.739 722.055 469.773 722.055C468.806 722.055 468.072 721.786 467.571 721.249C467.087 720.712 466.845 720.041 466.845 719.235ZM493.413 731.4C492.661 731.275 491.846 731.212 490.969 731.212C487.711 731.212 485.5 732.6 484.336 735.375V756H479.368V726.942H484.202L484.282 730.299C485.911 727.703 488.221 726.405 491.211 726.405C492.178 726.405 492.912 726.531 493.413 726.781V731.4ZM495.435 741.229C495.435 736.771 496.491 733.191 498.604 730.487C500.716 727.766 503.482 726.405 506.902 726.405C510.304 726.405 512.998 727.569 514.985 729.896V714.75H519.954V756H515.388L515.147 752.885C513.159 755.32 510.393 756.537 506.848 756.537C503.482 756.537 500.734 755.159 498.604 752.401C496.491 749.644 495.435 746.046 495.435 741.605V741.229ZM500.403 741.793C500.403 745.088 501.083 747.666 502.444 749.528C503.805 751.39 505.685 752.321 508.084 752.321C511.235 752.321 513.535 750.906 514.985 748.078V734.73C513.499 731.991 511.217 730.622 508.137 730.622C505.702 730.622 503.805 731.562 502.444 733.441C501.083 735.321 500.403 738.105 500.403 741.793Z" fill="black"/>
<path d="M471.445 773.745H467.89V781.44C467.89 788.415 464.515 795.615 458.935 798.855L461.275 801.645C465.235 799.215 468.205 794.67 469.645 789.405C471.085 794.22 473.875 798.36 477.7 800.61L479.905 797.685C474.55 794.715 471.445 787.875 471.445 781.305V773.745ZM490.165 769.965V786.21H484.81V770.865H481.3V808.305H484.81V789.225H490.165V810.33H493.675V769.965H490.165Z" fill="black"/>
<rect x="398" y="820" width="162" height="162" fill="white"/>
<rect x="398" y="820" width="162" height="162" fill="white"/>
<rect x="398" y="820" width="162" height="162" stroke="black" stroke-width="0.5"/>
<path d="M456.272 936.67C456.272 936.67 459.592 945.597 457.677 948.743C455.75 951.888 448.054 951.279 445.692 952.771C444.001 953.84 444.026 956.799 445.083 958.018C446.127 959.249 461.357 958.192 464.341 952.423C467.325 946.654 463.272 935.614 463.272 935.614L456.272 936.67Z" fill="#F44336"/>
<path d="M480.591 935.614L474.114 937.019C474.114 937.019 476.911 948.743 474.636 952.597C472.36 956.451 464.205 960.566 462.737 963.799C461.42 966.683 464.665 969.046 469.737 965.9C474.81 962.755 480.554 958.055 481.635 955.742C484.271 950.148 480.591 935.614 480.591 935.614Z" fill="#F44336"/>
<path d="M436.318 847.228C422.542 850.324 411.812 861.936 415.841 879.603C418.228 890.084 419.695 893.777 420.565 898.501C422.405 908.435 421.908 912.799 426.11 921.9C430.574 931.585 446.997 944.018 467.474 941.034C487.951 938.05 496.182 935.253 496.182 935.253L503.53 928.775L510.53 927.022L511.574 921.95C511.574 921.95 516.808 921.714 517.877 920.023C519.568 917.337 518.574 915.124 515.602 914.067C512.631 913.023 510.878 912.14 510.878 912.14C510.878 912.14 539.759 893.056 543.253 890.967C546.747 888.878 552.18 885.273 552.441 883.967C553.1 880.648 544.123 873.287 532.399 869.794C520.675 866.288 510.604 865.33 508.951 866.648C506.75 868.376 497.052 886.603 490.575 885.733C482.17 884.589 476.401 876.719 474.822 872.256C473.032 867.195 462.277 841.397 436.318 847.228Z" fill="#4791DB"/>
<path d="M418.638 874.531C416.537 874.183 411.166 879.902 410.121 881.294C409.077 882.687 407.423 884.688 408.02 886.193C408.953 888.53 413.739 888.655 416.537 888.878C419.458 889.115 425.053 889.575 425.986 887.834C426.918 886.081 424.941 881.655 423.3 878.969C421.783 876.47 420.826 874.904 418.638 874.531V874.531Z" fill="#FFB74D"/>
<path d="M441.528 879.602C444.268 879.271 446.199 876.594 445.841 873.621C445.482 870.649 442.97 868.508 440.229 868.838C437.489 869.169 435.558 871.846 435.916 874.819C436.275 877.791 438.787 879.932 441.528 879.602Z" fill="#2A2D2F"/>
<path d="M457.317 911.643C454.892 912.526 458.075 921.092 461.345 924.946C464.789 928.999 473.119 938.1 485.85 939.294C494.491 940.114 498.333 937.665 500.372 935.44C501.889 933.786 503.517 931.871 504.636 931.001C506.265 929.72 507.906 930.827 510.703 928.788C512.718 927.321 513.153 924.884 514.21 924.001C515.254 923.131 517.032 923.33 517.939 922.484C519.568 920.968 519.344 916.529 518.176 916.305C517.007 916.081 516.895 919.451 515.726 919.923C514.558 920.396 513.004 920.097 510.828 921.328C508.963 922.373 509.547 924.474 508.267 925.406C506.986 926.339 504.649 925.058 501.503 926.811C499.8 927.756 498.358 932.294 493.447 933.351C487.354 934.656 478.216 930.218 473.84 927.047C463.682 919.687 461.457 910.126 457.317 911.643Z" fill="#1976D2"/>
<path d="M471.445 773.745H467.89V781.44C467.89 788.415 464.515 795.615 458.935 798.855L461.275 801.645C465.235 799.215 468.205 794.67 469.645 789.405C471.085 794.22 473.875 798.36 477.7 800.61L479.905 797.685C474.55 794.715 471.445 787.875 471.445 781.305V773.745ZM490.165 769.965V786.21H484.81V770.865H481.3V808.305H484.81V789.225H490.165V810.33H493.675V769.965H490.165Z" fill="black"/>
<rect x="219" y="1007" width="520" height="292.5" fill="#F6F5F5"/>
<rect x="219.25" y="1007.25" width="519.5" height="292" fill="white" stroke="black" stroke-width="0.5"/>
<path d="M462.359 1215.79C462.359 1220.23 461.339 1223.81 459.298 1226.51C457.257 1229.19 454.518 1230.54 451.08 1230.54C447.41 1230.54 444.572 1229.24 442.567 1226.64L442.325 1230H437.76V1188.75H442.728V1204.14C444.733 1201.65 447.499 1200.41 451.026 1200.41C454.553 1200.41 457.319 1201.74 459.325 1204.41C461.348 1207.07 462.359 1210.73 462.359 1215.36V1215.79ZM457.391 1215.23C457.391 1211.85 456.738 1209.23 455.431 1207.39C454.124 1205.54 452.244 1204.62 449.791 1204.62C446.515 1204.62 444.16 1206.14 442.728 1209.19V1221.76C444.25 1224.8 446.622 1226.32 449.845 1226.32C452.226 1226.32 454.079 1225.4 455.404 1223.55C456.729 1221.71 457.391 1218.94 457.391 1215.23ZM473.217 1230H468.248V1200.94H473.217V1230ZM467.845 1193.23C467.845 1192.43 468.087 1191.75 468.571 1191.19C469.072 1190.64 469.806 1190.36 470.773 1190.36C471.739 1190.36 472.474 1190.64 472.975 1191.19C473.476 1191.75 473.727 1192.43 473.727 1193.23C473.727 1194.04 473.476 1194.71 472.975 1195.25C472.474 1195.79 471.739 1196.05 470.773 1196.05C469.806 1196.05 469.072 1195.79 468.571 1195.25C468.087 1194.71 467.845 1194.04 467.845 1193.23ZM494.413 1205.4C493.661 1205.28 492.846 1205.21 491.969 1205.21C488.711 1205.21 486.5 1206.6 485.336 1209.38V1230H480.368V1200.94H485.202L485.282 1204.3C486.911 1201.7 489.221 1200.41 492.211 1200.41C493.178 1200.41 493.912 1200.53 494.413 1200.78V1205.4ZM496.435 1215.23C496.435 1210.77 497.491 1207.19 499.604 1204.49C501.716 1201.77 504.482 1200.41 507.902 1200.41C511.304 1200.41 513.998 1201.57 515.985 1203.9V1188.75H520.954V1230H516.388L516.147 1226.88C514.159 1229.32 511.393 1230.54 507.848 1230.54C504.482 1230.54 501.734 1229.16 499.604 1226.4C497.491 1223.64 496.435 1220.05 496.435 1215.61V1215.23ZM501.403 1215.79C501.403 1219.09 502.083 1221.67 503.444 1223.53C504.805 1225.39 506.685 1226.32 509.084 1226.32C512.235 1226.32 514.535 1224.91 515.985 1222.08V1208.73C514.499 1205.99 512.217 1204.62 509.137 1204.62C506.702 1204.62 504.805 1205.56 503.444 1207.44C502.083 1209.32 501.403 1212.11 501.403 1215.79Z" fill="black"/>
<path d="M472.445 1246.74H468.89V1254.44C468.89 1261.41 465.515 1268.61 459.935 1271.85L462.275 1274.64C466.235 1272.21 469.205 1267.67 470.645 1262.4C472.085 1267.22 474.875 1271.36 478.7 1273.61L480.905 1270.68C475.55 1267.71 472.445 1260.87 472.445 1254.3V1246.74ZM491.165 1242.96V1259.21H485.81V1243.86H482.3V1281.31H485.81V1262.22H491.165V1283.33H494.675V1242.96H491.165Z" fill="black"/>
<rect x="398" y="1015" width="162" height="162" fill="white"/>
<rect x="398" y="1015" width="162" height="162" fill="white"/>
<rect x="398" y="1015" width="162" height="162" stroke="black" stroke-width="0.5"/>
<path d="M456.272 1131.67C456.272 1131.67 459.592 1140.6 457.677 1143.74C455.75 1146.89 448.054 1146.28 445.692 1147.77C444.001 1148.84 444.026 1151.8 445.083 1153.02C446.127 1154.25 461.357 1153.19 464.341 1147.42C467.325 1141.65 463.272 1130.61 463.272 1130.61L456.272 1131.67Z" fill="#F44336"/>
<path d="M480.591 1130.61L474.114 1132.02C474.114 1132.02 476.911 1143.74 474.636 1147.6C472.36 1151.45 464.205 1155.57 462.737 1158.8C461.42 1161.68 464.665 1164.05 469.737 1160.9C474.81 1157.75 480.554 1153.05 481.635 1150.74C484.271 1145.15 480.591 1130.61 480.591 1130.61Z" fill="#F44336"/>
<path d="M436.318 1042.23C422.542 1045.32 411.812 1056.94 415.841 1074.6C418.228 1085.08 419.695 1088.78 420.565 1093.5C422.405 1103.44 421.908 1107.8 426.11 1116.9C430.574 1126.59 446.997 1139.02 467.474 1136.03C487.951 1133.05 496.182 1130.25 496.182 1130.25L503.53 1123.78L510.53 1122.02L511.574 1116.95C511.574 1116.95 516.808 1116.71 517.877 1115.02C519.568 1112.34 518.574 1110.12 515.602 1109.07C512.631 1108.02 510.878 1107.14 510.878 1107.14C510.878 1107.14 539.759 1088.06 543.253 1085.97C546.747 1083.88 552.18 1080.27 552.441 1078.97C553.1 1075.65 544.123 1068.29 532.399 1064.79C520.675 1061.29 510.604 1060.33 508.951 1061.65C506.75 1063.38 497.052 1081.6 490.575 1080.73C482.17 1079.59 476.401 1071.72 474.822 1067.26C473.032 1062.2 462.277 1036.4 436.318 1042.23Z" fill="#4791DB"/>
<path d="M418.638 1069.53C416.537 1069.18 411.166 1074.9 410.121 1076.29C409.077 1077.69 407.423 1079.69 408.02 1081.19C408.953 1083.53 413.739 1083.65 416.537 1083.88C419.458 1084.11 425.053 1084.57 425.986 1082.83C426.918 1081.08 424.941 1076.65 423.3 1073.97C421.783 1071.47 420.826 1069.9 418.638 1069.53V1069.53Z" fill="#FFB74D"/>
<path d="M441.528 1074.6C444.268 1074.27 446.199 1071.59 445.841 1068.62C445.482 1065.65 442.97 1063.51 440.229 1063.84C437.489 1064.17 435.558 1066.85 435.916 1069.82C436.275 1072.79 438.787 1074.93 441.528 1074.6Z" fill="#2A2D2F"/>
<path d="M457.317 1106.64C454.892 1107.53 458.075 1116.09 461.345 1119.95C464.789 1124 473.119 1133.1 485.85 1134.29C494.491 1135.11 498.333 1132.67 500.372 1130.44C501.889 1128.79 503.517 1126.87 504.636 1126C506.265 1124.72 507.906 1125.83 510.703 1123.79C512.718 1122.32 513.153 1119.88 514.21 1119C515.254 1118.13 517.032 1118.33 517.939 1117.48C519.568 1115.97 519.344 1111.53 518.176 1111.31C517.007 1111.08 516.895 1114.45 515.726 1114.92C514.558 1115.4 513.004 1115.1 510.828 1116.33C508.963 1117.37 509.547 1119.47 508.267 1120.41C506.986 1121.34 504.649 1120.06 501.503 1121.81C499.8 1122.76 498.358 1127.29 493.447 1128.35C487.354 1129.66 478.216 1125.22 473.84 1122.05C463.682 1114.69 461.457 1105.13 457.317 1106.64Z" fill="#1976D2"/>
<rect x="218.25" y="389.25" width="519.5" height="292" fill="white" stroke="black" stroke-width="0.5"/>
<path d="M460.359 637.793C460.359 642.234 459.339 645.805 457.298 648.509C455.257 651.194 452.518 652.537 449.08 652.537C445.41 652.537 442.572 651.239 440.567 648.643L440.325 652H435.76V610.75H440.728V626.138C442.733 623.65 445.499 622.405 449.026 622.405C452.553 622.405 455.319 623.739 457.325 626.407C459.348 629.074 460.359 632.727 460.359 637.364V637.793ZM455.391 637.229C455.391 633.846 454.738 631.232 453.431 629.388C452.124 627.544 450.244 626.622 447.791 626.622C444.515 626.622 442.16 628.143 440.728 631.187V643.755C442.25 646.799 444.622 648.321 447.845 648.321C450.226 648.321 452.079 647.399 453.404 645.555C454.729 643.711 455.391 640.936 455.391 637.229ZM471.217 652H466.248V622.942H471.217V652ZM465.845 615.235C465.845 614.429 466.087 613.749 466.571 613.194C467.072 612.639 467.806 612.361 468.773 612.361C469.739 612.361 470.474 612.639 470.975 613.194C471.476 613.749 471.727 614.429 471.727 615.235C471.727 616.041 471.476 616.712 470.975 617.249C470.474 617.786 469.739 618.055 468.773 618.055C467.806 618.055 467.072 617.786 466.571 617.249C466.087 616.712 465.845 616.041 465.845 615.235ZM492.413 627.4C491.661 627.275 490.846 627.212 489.969 627.212C486.711 627.212 484.5 628.6 483.336 631.375V652H478.368V622.942H483.202L483.282 626.299C484.911 623.703 487.221 622.405 490.211 622.405C491.178 622.405 491.912 622.531 492.413 622.781V627.4ZM494.435 637.229C494.435 632.771 495.491 629.191 497.604 626.487C499.716 623.766 502.482 622.405 505.902 622.405C509.304 622.405 511.998 623.569 513.985 625.896V610.75H518.954V652H514.388L514.147 648.885C512.159 651.32 509.393 652.537 505.848 652.537C502.482 652.537 499.734 651.159 497.604 648.401C495.491 645.644 494.435 642.046 494.435 637.605V637.229ZM499.403 637.793C499.403 641.088 500.083 643.666 501.444 645.528C502.805 647.39 504.685 648.321 507.084 648.321C510.235 648.321 512.535 646.906 513.985 644.078V630.73C512.499 627.991 510.217 626.622 507.137 626.622C504.702 626.622 502.805 627.562 501.444 629.441C500.083 631.321 499.403 634.105 499.403 637.793Z" fill="black"/>
<rect x="378" y="399" width="198" height="198" fill="white"/>
<rect x="378" y="399" width="198" height="198" fill="white"/>
<rect x="378" y="399" width="198" height="198" stroke="black" stroke-width="0.5"/>
<path d="M449.222 541.597C449.222 541.597 453.279 552.508 450.939 556.352C448.583 560.197 439.177 559.452 436.29 561.276C434.223 562.582 434.254 566.199 435.545 567.688C436.822 569.193 455.437 567.901 459.084 560.85C462.731 553.799 457.777 540.305 457.777 540.305L449.222 541.597Z" fill="#F44336"/>
<path d="M478.945 540.305L471.028 542.023C471.028 542.023 474.447 556.352 471.666 561.063C468.885 565.774 458.916 570.803 457.123 574.754C455.513 578.28 459.479 581.167 465.679 577.322C471.878 573.478 478.899 567.734 480.221 564.907C483.442 558.069 478.945 540.305 478.945 540.305Z" fill="#F44336"/>
<path d="M424.832 432.279C407.995 436.062 394.882 450.255 399.805 471.849C402.723 484.659 404.516 489.172 405.579 494.946C407.828 507.088 407.22 512.421 412.357 523.545C417.812 535.382 437.886 550.578 462.913 546.931C487.94 543.284 498 539.865 498 539.865L506.981 531.948L515.536 529.805L516.812 523.605C516.812 523.605 523.21 523.317 524.517 521.25C526.583 517.968 525.368 515.263 521.736 513.971C518.104 512.695 515.961 511.616 515.961 511.616C515.961 511.616 551.261 488.29 555.531 485.737C559.801 483.185 566.442 478.778 566.761 477.182C567.566 473.125 556.595 464.129 542.265 459.859C527.936 455.574 515.627 454.404 513.606 456.015C510.916 458.127 499.064 480.404 491.147 479.34C480.874 477.942 473.824 468.323 471.894 462.868C469.706 456.683 456.561 425.152 424.832 432.279Z" fill="#4791DB"/>
<path d="M403.224 465.649C400.656 465.223 394.092 472.213 392.815 473.915C391.539 475.617 389.518 478.064 390.247 479.902C391.387 482.759 397.237 482.911 400.656 483.185C404.227 483.473 411.065 484.036 412.205 481.908C413.345 479.766 410.928 474.356 408.923 471.074C407.069 468.019 405.899 466.105 403.224 465.649V465.649Z" fill="#FFB74D"/>
<path d="M431.201 471.847C434.55 471.442 436.91 468.17 436.472 464.537C436.033 460.904 432.963 458.287 429.613 458.691C426.264 459.095 423.904 462.368 424.342 466.001C424.781 469.633 427.851 472.251 431.201 471.847Z" fill="#2A2D2F"/>
<path d="M450.498 511.008C447.535 512.087 451.425 522.557 455.422 527.267C459.631 532.221 469.812 543.345 485.372 544.803C495.934 545.806 500.629 542.813 503.121 540.093C504.975 538.072 506.966 535.732 508.333 534.668C510.324 533.103 512.33 534.455 515.749 531.963C518.211 530.17 518.742 527.192 520.034 526.113C521.31 525.049 523.483 525.292 524.593 524.259C526.583 522.405 526.31 516.98 524.881 516.706C523.453 516.433 523.316 520.551 521.888 521.128C520.459 521.706 518.56 521.341 515.901 522.846C513.621 524.122 514.336 526.69 512.77 527.83C511.205 528.969 508.348 527.404 504.504 529.547C502.422 530.702 500.659 536.248 494.657 537.54C487.211 539.135 476.042 533.71 470.693 529.836C458.278 520.84 455.558 509.154 450.498 511.008Z" fill="#1976D2"/>
</svg>
