<svg width="520" height="293" viewBox="0 0 520 293" fill="none" xmlns="http://www.w3.org/2000/svg">
<rect width="520" height="292.5" fill="#F6F5F5"/>
<rect x="0.25" y="0.25" width="519.5" height="292" fill="black" stroke="white" stroke-width="0.5"/>
<path d="M243.359 43.7935C243.359 48.2336 242.339 51.8053 240.298 54.5088C238.257 57.1943 235.518 58.5371 232.08 58.5371C228.41 58.5371 225.572 57.2391 223.567 54.6431L223.325 58H218.76V16.75H223.728V32.1382C225.733 29.6496 228.499 28.4053 232.026 28.4053C235.553 28.4053 238.319 29.7391 240.325 32.4067C242.348 35.0744 243.359 38.7267 243.359 43.3638V43.7935ZM238.391 43.2295C238.391 39.8457 237.738 37.2318 236.431 35.3877C235.124 33.5436 233.244 32.6216 230.791 32.6216C227.515 32.6216 225.16 34.1434 223.728 37.187V49.7554C225.25 52.799 227.622 54.3208 230.845 54.3208C233.226 54.3208 235.079 53.3988 236.404 51.5547C237.729 49.7106 238.391 46.9355 238.391 43.2295ZM254.217 58H249.248V28.9424H254.217V58ZM248.845 21.2349C248.845 20.4292 249.087 19.7489 249.571 19.1938C250.072 18.6388 250.806 18.3613 251.773 18.3613C252.739 18.3613 253.474 18.6388 253.975 19.1938C254.476 19.7489 254.727 20.4292 254.727 21.2349C254.727 22.0405 254.476 22.7119 253.975 23.249C253.474 23.7861 252.739 24.0547 251.773 24.0547C250.806 24.0547 250.072 23.7861 249.571 23.249C249.087 22.7119 248.845 22.0405 248.845 21.2349ZM275.413 33.4004C274.661 33.2751 273.846 33.2124 272.969 33.2124C269.711 33.2124 267.5 34.5999 266.336 37.375V58H261.368V28.9424H266.202L266.282 32.2993C267.911 29.7033 270.221 28.4053 273.211 28.4053C274.178 28.4053 274.912 28.5306 275.413 28.7812V33.4004ZM277.435 43.2295C277.435 38.7715 278.491 35.1908 280.604 32.4873C282.716 29.766 285.482 28.4053 288.902 28.4053C292.304 28.4053 294.998 29.569 296.985 31.8965V16.75H301.954V58H297.388L297.147 54.8848C295.159 57.3197 292.393 58.5371 288.848 58.5371C285.482 58.5371 282.734 57.1585 280.604 54.4014C278.491 51.6442 277.435 48.0456 277.435 43.6055V43.2295ZM282.403 43.7935C282.403 47.0877 283.083 49.6659 284.444 51.5278C285.805 53.3898 287.685 54.3208 290.084 54.3208C293.235 54.3208 295.535 52.9064 296.985 50.0776V36.7305C295.499 33.9912 293.217 32.6216 290.137 32.6216C287.702 32.6216 285.805 33.5615 284.444 35.4414C283.083 37.3213 282.403 40.1053 282.403 43.7935Z" fill="white"/>
<path d="M253.445 75.745H249.89V83.44C249.89 90.415 246.515 97.615 240.935 100.855L243.275 103.645C247.235 101.215 250.205 96.67 251.645 91.405C253.085 96.22 255.875 100.36 259.7 102.61L261.905 99.685C256.55 96.715 253.445 89.875 253.445 83.305V75.745ZM272.165 71.965V88.21H266.81V72.865H263.3V110.305H266.81V91.225H272.165V112.33H275.675V71.965H272.165Z" fill="white"/>
<rect x="180" y="122" width="162" height="162" fill="black"/>
<rect x="180" y="122" width="162" height="162" fill="black"/>
<rect x="180" y="122" width="162" height="162" stroke="white" stroke-width="0.5"/>
<path d="M238.272 238.67C238.272 238.67 241.592 247.597 239.677 250.743C237.75 253.888 230.054 253.279 227.692 254.771C226.001 255.84 226.026 258.799 227.083 260.018C228.127 261.249 243.357 260.192 246.341 254.423C249.325 248.654 245.272 237.614 245.272 237.614L238.272 238.67Z" fill="#F44336"/>
<path d="M262.591 237.614L256.113 239.019C256.113 239.019 258.911 250.743 256.636 254.597C254.36 258.451 246.204 262.566 244.737 265.799C243.419 268.683 246.664 271.046 251.737 267.9C256.81 264.755 262.554 260.055 263.635 257.742C266.271 252.148 262.591 237.614 262.591 237.614Z" fill="#F44336"/>
<path d="M218.317 149.228C204.542 152.324 193.812 163.936 197.84 181.603C200.228 192.084 201.695 195.777 202.565 200.501C204.405 210.435 203.908 214.799 208.11 223.9C212.573 233.585 228.997 246.018 249.474 243.034C269.951 240.05 278.182 237.253 278.182 237.253L285.53 230.775L292.529 229.022L293.574 223.95C293.574 223.95 298.808 223.714 299.877 222.023C301.568 219.337 300.574 217.124 297.602 216.067C294.631 215.023 292.878 214.14 292.878 214.14C292.878 214.14 321.759 195.056 325.253 192.967C328.747 190.878 334.18 187.273 334.441 185.967C335.1 182.648 326.123 175.287 314.399 171.794C302.675 168.288 292.604 167.33 290.95 168.648C288.75 170.376 279.052 188.603 272.575 187.733C264.17 186.589 258.401 178.719 256.822 174.256C255.032 169.195 244.277 143.397 218.317 149.228Z" fill="#4791DB"/>
<path d="M200.638 176.531C198.537 176.183 193.166 181.902 192.121 183.294C191.077 184.687 189.423 186.688 190.02 188.193C190.953 190.53 195.739 190.655 198.537 190.878C201.458 191.115 207.053 191.575 207.986 189.834C208.918 188.081 206.941 183.655 205.3 180.969C203.783 178.47 202.826 176.904 200.638 176.531V176.531Z" fill="#FFB74D"/>
<path d="M223.528 181.602C226.268 181.271 228.199 178.594 227.84 175.621C227.482 172.649 224.969 170.508 222.229 170.838C219.489 171.169 217.558 173.846 217.916 176.819C218.275 179.791 220.787 181.932 223.528 181.602Z" fill="#2A2D2F"/>
<path d="M239.317 213.643C236.892 214.526 240.075 223.092 243.345 226.946C246.789 230.999 255.119 240.1 267.85 241.294C276.491 242.114 280.333 239.665 282.372 237.44C283.889 235.786 285.517 233.871 286.636 233.001C288.265 231.72 289.906 232.827 292.704 230.788C294.718 229.321 295.153 226.884 296.21 226.001C297.254 225.131 299.032 225.33 299.939 224.484C301.568 222.968 301.344 218.529 300.176 218.305C299.007 218.081 298.895 221.451 297.726 221.923C296.558 222.396 295.004 222.097 292.828 223.328C290.963 224.373 291.547 226.474 290.267 227.406C288.986 228.339 286.649 227.058 283.503 228.811C281.8 229.756 280.358 234.294 275.447 235.351C269.355 236.656 260.216 232.218 255.84 229.047C245.682 221.687 243.457 212.126 239.317 213.643Z" fill="#1976D2"/>
</svg>
