<svg width="520" height="293" viewBox="0 0 520 293" fill="none" xmlns="http://www.w3.org/2000/svg">
<rect x="0.25" y="0.25" width="519.5" height="292" fill="white" stroke="black" stroke-width="0.5"/>
<path d="M244.359 44.7935C244.359 49.2336 243.339 52.8053 241.298 55.5088C239.257 58.1943 236.518 59.5371 233.08 59.5371C229.41 59.5371 226.572 58.2391 224.567 55.6431L224.325 59H219.76V17.75H224.728V33.1382C226.733 30.6496 229.499 29.4053 233.026 29.4053C236.553 29.4053 239.319 30.7391 241.325 33.4067C243.348 36.0744 244.359 39.7267 244.359 44.3638V44.7935ZM239.391 44.2295C239.391 40.8457 238.738 38.2318 237.431 36.3877C236.124 34.5436 234.244 33.6216 231.791 33.6216C228.515 33.6216 226.16 35.1434 224.728 38.187V50.7554C226.25 53.799 228.622 55.3208 231.845 55.3208C234.226 55.3208 236.079 54.3988 237.404 52.5547C238.729 50.7106 239.391 47.9355 239.391 44.2295ZM255.217 59H250.248V29.9424H255.217V59ZM249.845 22.2349C249.845 21.4292 250.087 20.7489 250.571 20.1938C251.072 19.6388 251.806 19.3613 252.773 19.3613C253.739 19.3613 254.474 19.6388 254.975 20.1938C255.476 20.7489 255.727 21.4292 255.727 22.2349C255.727 23.0405 255.476 23.7119 254.975 24.249C254.474 24.7861 253.739 25.0547 252.773 25.0547C251.806 25.0547 251.072 24.7861 250.571 24.249C250.087 23.7119 249.845 23.0405 249.845 22.2349ZM276.413 34.4004C275.661 34.2751 274.846 34.2124 273.969 34.2124C270.711 34.2124 268.5 35.5999 267.336 38.375V59H262.368V29.9424H267.202L267.282 33.2993C268.911 30.7033 271.221 29.4053 274.211 29.4053C275.178 29.4053 275.912 29.5306 276.413 29.7812V34.4004ZM278.435 44.2295C278.435 39.7715 279.491 36.1908 281.604 33.4873C283.716 30.766 286.482 29.4053 289.902 29.4053C293.304 29.4053 295.998 30.569 297.985 32.8965V17.75H302.954V59H298.388L298.147 55.8848C296.159 58.3197 293.393 59.5371 289.848 59.5371C286.482 59.5371 283.734 58.1585 281.604 55.4014C279.491 52.6442 278.435 49.0456 278.435 44.6055V44.2295ZM283.403 44.7935C283.403 48.0877 284.083 50.6659 285.444 52.5278C286.805 54.3898 288.685 55.3208 291.084 55.3208C294.235 55.3208 296.535 53.9064 297.985 51.0776V37.7305C296.499 34.9912 294.217 33.6216 291.137 33.6216C288.702 33.6216 286.805 34.5615 285.444 36.4414C284.083 38.3213 283.403 41.1053 283.403 44.7935Z" fill="black"/>
<rect x="163" y="85" width="198" height="198" fill="white"/>
<rect x="163" y="85" width="198" height="198" fill="white"/>
<rect x="163" y="85" width="198" height="198" stroke="black" stroke-width="0.5"/>
<path d="M234.222 227.597C234.222 227.597 238.279 238.508 235.939 242.352C233.583 246.197 224.177 245.452 221.29 247.276C219.223 248.582 219.254 252.199 220.545 253.688C221.822 255.193 240.437 253.901 244.084 246.85C247.731 239.799 242.777 226.305 242.777 226.305L234.222 227.597Z" fill="#F44336"/>
<path d="M263.945 226.305L256.028 228.023C256.028 228.023 259.447 242.352 256.666 247.063C253.885 251.774 243.917 256.803 242.123 260.754C240.513 264.28 244.479 267.167 250.679 263.322C256.879 259.478 263.899 253.734 265.221 250.907C268.443 244.069 263.945 226.305 263.945 226.305Z" fill="#F44336"/>
<path d="M209.832 118.279C192.996 122.062 179.882 136.255 184.805 157.849C187.723 170.659 189.516 175.172 190.579 180.946C192.828 193.088 192.221 198.421 197.357 209.545C202.812 221.382 222.886 236.578 247.913 232.931C272.941 229.284 283 225.865 283 225.865L291.981 217.948L300.536 215.805L301.812 209.605C301.812 209.605 308.21 209.317 309.517 207.25C311.583 203.968 310.368 201.263 306.736 199.971C303.104 198.695 300.962 197.616 300.962 197.616C300.962 197.616 336.261 174.29 340.531 171.737C344.801 169.185 351.442 164.778 351.761 163.182C352.566 159.125 341.595 150.129 327.265 145.859C312.936 141.574 300.627 140.404 298.606 142.015C295.917 144.127 284.064 166.404 276.147 165.34C265.874 163.942 258.824 154.323 256.894 148.868C254.706 142.683 241.561 111.152 209.832 118.279Z" fill="#4791DB"/>
<path d="M188.224 151.649C185.656 151.223 179.091 158.213 177.815 159.915C176.539 161.617 174.517 164.064 175.247 165.902C176.387 168.759 182.237 168.911 185.656 169.185C189.227 169.473 196.065 170.036 197.205 167.908C198.344 165.766 195.928 160.356 193.922 157.074C192.069 154.019 190.899 152.105 188.224 151.649V151.649Z" fill="#FFB74D"/>
<path d="M216.201 157.847C219.55 157.442 221.91 154.17 221.472 150.537C221.033 146.904 217.963 144.287 214.613 144.691C211.264 145.095 208.904 148.368 209.342 152.001C209.781 155.633 212.851 158.251 216.201 157.847Z" fill="#2A2D2F"/>
<path d="M235.498 197.008C232.535 198.087 236.425 208.557 240.422 213.268C244.631 218.221 254.812 229.345 270.372 230.803C280.933 231.806 285.629 228.813 288.121 226.093C289.975 224.072 291.966 221.732 293.333 220.668C295.324 219.103 297.33 220.455 300.749 217.963C303.21 216.17 303.742 213.192 305.034 212.113C306.31 211.049 308.483 211.292 309.593 210.259C311.583 208.405 311.31 202.98 309.881 202.706C308.453 202.433 308.316 206.551 306.888 207.128C305.459 207.706 303.56 207.341 300.901 208.846C298.621 210.122 299.336 212.69 297.77 213.83C296.205 214.969 293.348 213.404 289.504 215.547C287.422 216.702 285.659 222.248 279.657 223.54C272.211 225.135 261.042 219.711 255.693 215.836C243.278 206.84 240.558 195.154 235.498 197.008Z" fill="#1976D2"/>
</svg>
