<svg width="1077" height="293" viewBox="0 0 1077 293" fill="none" xmlns="http://www.w3.org/2000/svg">
<rect x="0.25" y="0.25" width="519.5" height="292" fill="black" stroke="white" stroke-width="0.5"/>
<rect x="557.25" y="0.25" width="519.5" height="292" fill="black" stroke="white" stroke-width="0.5"/>
<path d="M232.828 154.044C232.828 160.906 231.251 166.426 228.097 170.604C224.942 174.755 220.709 176.83 215.396 176.83C209.724 176.83 205.339 174.824 202.24 170.812L201.866 176H194.811V112.25H202.489V136.032C205.588 132.186 209.863 130.263 215.313 130.263C220.764 130.263 225.039 132.324 228.138 136.447C231.265 140.569 232.828 146.214 232.828 153.38V154.044ZM225.15 153.173C225.15 147.943 224.14 143.904 222.12 141.054C220.1 138.204 217.195 136.779 213.404 136.779C208.341 136.779 204.702 139.131 202.489 143.834V163.258C204.841 167.962 208.507 170.314 213.487 170.314C217.167 170.314 220.031 168.889 222.079 166.039C224.126 163.189 225.15 158.9 225.15 153.173ZM249.607 176H241.929V131.093H249.607V176ZM241.307 119.181C241.307 117.936 241.68 116.885 242.427 116.027C243.202 115.169 244.336 114.74 245.83 114.74C247.325 114.74 248.459 115.169 249.234 116.027C250.009 116.885 250.396 117.936 250.396 119.181C250.396 120.426 250.009 121.464 249.234 122.294C248.459 123.124 247.325 123.539 245.83 123.539C244.336 123.539 243.202 123.124 242.427 122.294C241.68 121.464 241.307 120.426 241.307 119.181ZM282.366 137.982C281.203 137.789 279.944 137.692 278.589 137.692C273.553 137.692 270.136 139.836 268.337 144.125V176H260.659V131.093H268.13L268.254 136.281C270.772 132.269 274.341 130.263 278.962 130.263C280.456 130.263 281.591 130.456 282.366 130.844V137.982ZM285.49 153.173C285.49 146.283 287.122 140.749 290.387 136.571C293.652 132.366 297.927 130.263 303.212 130.263C308.469 130.263 312.633 132.061 315.705 135.658V112.25H323.383V176H316.327L315.954 171.186C312.883 174.949 308.608 176.83 303.129 176.83C297.927 176.83 293.68 174.7 290.387 170.438C287.122 166.177 285.49 160.616 285.49 153.754V153.173ZM293.168 154.044C293.168 159.136 294.22 163.12 296.322 165.998C298.425 168.875 301.331 170.314 305.038 170.314C309.908 170.314 313.464 168.128 315.705 163.756V143.129C313.408 138.896 309.88 136.779 305.121 136.779C301.358 136.779 298.425 138.231 296.322 141.137C294.22 144.042 293.168 148.345 293.168 154.044Z" fill="white"/>
<path d="M804.285 121.185H797.57V135.72C797.57 148.895 791.195 162.495 780.655 168.615L785.075 173.885C792.555 169.295 798.165 160.71 800.885 150.765C803.605 159.86 808.875 167.68 816.1 171.93L820.265 166.405C810.15 160.795 804.285 147.875 804.285 135.465V121.185ZM839.645 114.045V144.73H829.53V115.745H822.9V186.465H829.53V150.425H839.645V190.29H846.275V114.045H839.645Z" fill="white"/>
</svg>
