<svg width="1078" height="293" viewBox="0 0 1078 293" fill="none" xmlns="http://www.w3.org/2000/svg">
<rect width="520" height="292.5" fill="#F6F5F5"/>
<rect x="0.25" y="0.25" width="519.5" height="292" fill="black" stroke="white" stroke-width="0.5"/>
<rect x="558.25" y="0.25" width="519.5" height="292" fill="black" stroke="white" stroke-width="0.5"/>
<path d="M248.285 114.185H241.57V128.72C241.57 141.895 235.195 155.495 224.655 161.615L229.075 166.885C236.555 162.295 242.165 153.71 244.885 143.765C247.605 152.86 252.875 160.68 260.1 164.93L264.265 159.405C254.15 153.795 248.285 140.875 248.285 128.465V114.185ZM283.645 107.045V137.73H273.53V108.745H266.9V179.465H273.53V143.425H283.645V183.29H290.275V107.045H283.645Z" fill="white"/>
<path d="M790.828 153.044C790.828 159.906 789.251 165.426 786.097 169.604C782.942 173.755 778.709 175.83 773.396 175.83C767.724 175.83 763.339 173.824 760.24 169.812L759.866 175H752.811V111.25H760.489V135.032C763.588 131.186 767.863 129.263 773.313 129.263C778.764 129.263 783.039 131.324 786.138 135.447C789.265 139.569 790.828 145.214 790.828 152.38V153.044ZM783.15 152.173C783.15 146.943 782.14 142.904 780.12 140.054C778.1 137.204 775.195 135.779 771.404 135.779C766.341 135.779 762.702 138.131 760.489 142.834V162.258C762.841 166.962 766.507 169.314 771.487 169.314C775.167 169.314 778.031 167.889 780.079 165.039C782.126 162.189 783.15 157.9 783.15 152.173ZM807.607 175H799.929V130.093H807.607V175ZM799.307 118.181C799.307 116.936 799.68 115.885 800.427 115.027C801.202 114.169 802.336 113.74 803.83 113.74C805.325 113.74 806.459 114.169 807.234 115.027C808.009 115.885 808.396 116.936 808.396 118.181C808.396 119.426 808.009 120.464 807.234 121.294C806.459 122.124 805.325 122.539 803.83 122.539C802.336 122.539 801.202 122.124 800.427 121.294C799.68 120.464 799.307 119.426 799.307 118.181ZM840.366 136.982C839.203 136.789 837.944 136.692 836.589 136.692C831.553 136.692 828.136 138.836 826.337 143.125V175H818.659V130.093H826.13L826.254 135.281C828.772 131.269 832.341 129.263 836.962 129.263C838.456 129.263 839.591 129.456 840.366 129.844V136.982ZM843.49 152.173C843.49 145.283 845.122 139.749 848.387 135.571C851.652 131.366 855.927 129.263 861.212 129.263C866.469 129.263 870.633 131.061 873.705 134.658V111.25H881.383V175H874.327L873.954 170.186C870.883 173.949 866.608 175.83 861.129 175.83C855.927 175.83 851.68 173.7 848.387 169.438C845.122 165.177 843.49 159.616 843.49 152.754V152.173ZM851.168 153.044C851.168 158.136 852.22 162.12 854.322 164.998C856.425 167.875 859.331 169.314 863.038 169.314C867.908 169.314 871.464 167.128 873.705 162.756V142.129C871.408 137.896 867.88 135.779 863.121 135.779C859.358 135.779 856.425 137.231 854.322 140.137C852.22 143.042 851.168 147.345 851.168 153.044Z" fill="white"/>
</svg>
