<svg width="192" height="192" viewBox="0 0 192 192" fill="none" xmlns="http://www.w3.org/2000/svg">
<path d="M55.063 34.8395C81.0735 36.0994 112.596 24.4562 134.164 44.1146C154.812 69.3744 149.345 115.826 118.741 130.93C107.614 135.371 95.5503 136.896 83.6791 135.363C83.6791 154.247 83.5887 173.131 83.6791 192C74.1906 191.18 64.6569 190.361 55.1685 189.586C54.7317 137.974 54.6413 86.361 55.1685 34.7484" fill="#1976D2"/>
<path d="M55.063 34.8395C81.0735 36.0994 112.596 24.4562 134.164 44.1146C154.812 69.3744 149.345 115.826 118.741 130.93C107.614 135.371 95.5503 136.896 83.6791 135.363C83.6791 154.247 83.5887 173.131 83.6791 192C74.1906 191.18 64.6569 190.361 55.1685 189.586C54.7317 137.974 54.6413 86.361 55.1685 34.7484" fill="#1976D2"/>
<path d="M55.063 34.8395C81.0735 36.0994 112.596 24.4562 134.164 44.1146C154.812 69.3744 149.345 115.826 118.741 130.93C107.614 135.371 95.5503 136.896 83.6791 135.363C83.6791 154.247 83.5887 173.131 83.6791 192C74.1906 191.18 64.6569 190.361 55.1685 189.586C54.7317 137.974 54.6413 86.361 55.1685 34.7484" fill="#1976D2"/>
<path d="M55.063 34.8395C81.0735 36.0994 112.596 24.4562 134.164 44.1146C154.812 69.3744 149.345 115.826 118.741 130.93C107.614 135.371 95.5503 136.896 83.6791 135.363C83.6791 154.247 83.5887 173.131 83.6791 192C74.1906 191.18 64.6569 190.361 55.1685 189.586C54.7317 137.974 54.6413 86.361 55.1685 34.7484" fill="#1976D2"/>
<path d="M12.661 43.927L3.46591 16.6887C8.09574 14.8392 15.6366 12.9416 25.7254 11.0161C35.9893 8.9671 48.1071 7.49744 62.0854 6.72045C102.231 4.94389 132.791 10.7512 153.752 23.9156C175.265 37.1632 186.104 54.8707 187.359 76.9777C188.12 103.206 176.915 123.959 153.75 139.349C131.318 154.811 101.958 163.722 66.0138 165.72C52.3986 166.477 40.5537 166.339 30.6735 165.523C20.7933 164.708 13.4481 163.638 8.63164 162.199L17.9211 133.365L37.0197 136.17C44.3455 136.9 52.9099 136.993 62.5313 136.458C83.4145 135.411 100.604 130.248 113.743 121.102C127.07 112.059 133.247 98.9779 133.014 82.0456C131.957 66.6374 124.74 54.9836 111.348 46.8572C97.9637 38.8442 79.7342 35.3085 56.3096 36.4968L32.2425 39.1993C24.4879 40.5401 18.0234 42.1504 12.661 43.927V43.927Z" fill="#42A5F5"/>
</svg>
